<?xml version="1.0" standalone="no"?>
<!DOCTYPE svg PUBLIC "-//W3C//DTD SVG 20010904//EN"
 "http://www.w3.org/TR/2001/REC-SVG-20010904/DTD/svg10.dtd">
<svg version="1.0" xmlns="http://www.w3.org/2000/svg"
 width="2000.000000pt" height="2000.000000pt" viewBox="0 0 2000.000000 2000.000000"
 preserveAspectRatio="xMidYMid meet">
<metadata>
Created by potrace 1.14, written by Peter Selinger 2001-2017
</metadata>
<g transform="translate(0.000000,2000.000000) scale(0.100000,-0.100000)"
fill="#000000" stroke="none">
<path d="M9560 19069 c-224 -13 -415 -29 -599 -50 -1416 -160 -2789 -661
-3974 -1451 -1348 -897 -2433 -2131 -3142 -3573 -320 -651 -560 -1342 -721
-2077 -61 -282 -155 -880 -140 -895 3 -3 34 20 69 51 l64 55 22 158 c63 447
182 968 319 1403 537 1699 1570 3201 2967 4315 975 778 2124 1352 3320 1660
352 91 754 172 945 190 36 3 137 14 225 25 231 28 493 49 705 55 220 7 322 15
297 24 -14 5 -2 18 59 64 l76 57 -178 -1 c-99 -1 -240 -5 -314 -10z"/>
<path d="M10840 19005 c-65 -28 -165 -52 -270 -64 -68 -8 -70 -8 -24 -10 155
-4 663 -61 909 -102 1304 -216 2492 -694 3600 -1448 1641 -1115 2900 -2815
3485 -4706 275 -888 403 -1735 403 -2675 0 -557 -35 -974 -129 -1534 -261
-1571 -1011 -3141 -2089 -4376 -245 -280 -703 -719 -1040 -995 -1027 -842
-2204 -1441 -3470 -1764 -953 -243 -2006 -329 -2985 -245 -1606 138 -3175 721
-4474 1664 -401 290 -719 563 -1082 925 -679 679 -1228 1434 -1658 2285 -401
792 -690 1668 -836 2535 -126 751 -158 1511 -95 2268 9 104 15 193 13 199 -10
30 -90 -462 -132 -817 -107 -883 97 -2167 526 -3320 387 -1040 954 -1984 1707
-2840 139 -158 522 -546 686 -695 1044 -948 2252 -1625 3595 -2015 1615 -469
3388 -472 5006 -10 1121 321 2157 845 3075 1558 581 451 1153 1021 1609 1606
1239 1590 1910 3548 1910 5571 0 848 -127 1749 -356 2525 -390 1319 -1014
2452 -1923 3490 -135 155 -631 651 -786 786 -615 539 -1239 961 -1950 1319
-909 458 -1908 761 -2930 890 -198 25 -226 24 -295 -5z"/>
<path d="M9475 18324 c-22 -2 -130 -11 -240 -20 -548 -41 -1061 -141 -1645
-318 -806 -244 -1496 -569 -2210 -1040 -444 -294 -930 -691 -1255 -1027 -865
-894 -1471 -1806 -1870 -2814 -146 -369 -295 -840 -374 -1179 -76 -328 -152
-797 -188 -1166 -26 -270 -26 -1239 0 -1510 19 -196 58 -492 82 -625 8 -44 19
-114 25 -155 31 -222 171 -756 296 -1130 190 -565 484 -1190 807 -1710 767
-1237 1825 -2240 3105 -2942 1023 -561 2135 -896 3297 -992 99 -8 344 -14 640
-15 606 -2 883 16 1335 85 200 30 571 103 585 114 6 5 98 32 205 60 928 244
1748 609 2520 1123 504 336 868 634 1290 1057 540 540 965 1094 1347 1758 102
177 338 640 330 648 -2 3 -26 -12 -53 -33 -27 -21 -66 -51 -86 -66 l-38 -28
36 78 c191 411 341 805 460 1211 27 90 29 94 88 142 34 28 64 50 68 50 4 0 5
-15 3 -32 -8 -54 33 77 69 222 81 320 146 715 192 1155 22 208 31 1154 14
1380 -82 1082 -377 2159 -850 3106 -521 1041 -1233 1942 -2125 2690 -568 477
-1264 916 -1908 1203 -729 326 -1575 565 -2347 666 -379 49 -444 52 -1015 55
-302 1 -568 1 -590 -1z m-4715 -2709 c0 -3 -22 -43 -49 -90 -83 -144 -119
-291 -142 -568 -9 -121 -9 -206 4 -475 17 -333 26 -722 28 -1093 1 -169 -1
-211 -14 -236 -9 -17 -13 -33 -10 -36 3 -4 1 -13 -6 -21 -6 -8 -11 -18 -9 -22
4 -17 -14 -114 -22 -119 -5 -3 -7 -14 -5 -25 2 -11 0 -22 -4 -25 -5 -2 -7 -25
-6 -50 1 -25 -1 -45 -5 -45 -10 0 -30 47 -30 70 0 11 -4 39 -10 62 -5 24 -16
81 -24 128 -9 47 -29 146 -46 220 -88 382 -83 327 -85 896 -1 281 -5 516 -9
522 -3 5 -6 90 -7 189 -1 203 18 324 73 463 39 101 82 151 162 190 92 46 216
83 216 65z m749 -76 c34 -12 60 -23 59 -25 -2 -2 -38 7 -79 20 -40 13 -67 24
-58 25 8 1 43 -8 78 -20z m9153 -221 c-23 -18 -42 -38 -42 -45 0 -7 -11 -15
-25 -19 -14 -3 -25 -13 -25 -21 0 -8 -4 -12 -9 -9 -4 3 -17 -4 -27 -16 -12
-13 -13 -18 -4 -12 8 5 17 9 20 10 10 2 46 16 85 34 70 32 245 100 256 100 8
0 7 -5 -1 -15 -7 -8 -16 -12 -21 -9 -5 3 -9 0 -9 -6 0 -6 -27 -37 -60 -70 -33
-33 -60 -64 -60 -70 0 -6 -3 -9 -7 -7 -5 2 -29 -18 -55 -45 -26 -26 -44 -48
-40 -48 4 0 -8 -9 -25 -20 -31 -19 -47 -38 -20 -25 6 4 4 0 -6 -8 -10 -9 -15
-21 -11 -31 3 -9 1 -16 -5 -16 -16 0 -72 -56 -64 -64 4 -4 0 -4 -9 -1 -24 9
-61 -13 -54 -32 5 -13 4 -14 -9 -3 -8 7 -15 11 -16 9 0 -2 -2 -12 -4 -21 -6
-30 -29 -47 -50 -36 -10 6 -15 6 -12 1 3 -5 -7 -17 -23 -28 -16 -11 -32 -30
-35 -42 -3 -13 -10 -23 -16 -23 -6 0 -7 5 -4 10 10 16 -11 12 -25 -5 -7 -8
-16 -12 -21 -9 -5 3 -9 0 -9 -6 0 -14 -16 -31 -53 -55 -21 -13 -25 -20 -15
-26 9 -6 5 -9 -12 -10 -14 -1 -28 -1 -32 0 -5 0 -8 -8 -8 -19 0 -12 -7 -20
-16 -20 -19 0 -44 -23 -45 -42 0 -10 -2 -10 -6 0 -7 18 -23 15 -23 -6 0 -9 -9
-23 -20 -30 -16 -10 -20 -10 -20 0 0 7 -18 -8 -41 -34 -22 -27 -47 -48 -55
-48 -8 0 -14 -4 -14 -9 0 -5 -16 -26 -36 -46 -28 -29 -38 -34 -45 -24 -6 11
-9 11 -13 -1 -14 -46 -17 -51 -28 -44 -8 5 -9 2 -5 -10 4 -10 3 -15 -3 -11 -6
3 -13 -1 -16 -10 -4 -8 -14 -14 -23 -13 -9 2 -15 -3 -13 -10 1 -7 -6 -16 -15
-19 -10 -4 -27 -16 -38 -26 -11 -11 -14 -17 -7 -13 6 4 12 2 12 -3 0 -6 -8
-11 -17 -11 -10 0 -29 -12 -42 -25 -13 -14 -27 -25 -33 -25 -5 0 -7 -4 -3 -9
3 -5 -14 -30 -37 -55 -65 -68 -91 -100 -88 -106 1 -3 -7 -9 -18 -15 -12 -5
-24 -22 -27 -37 -4 -18 -15 -30 -30 -34 -14 -3 -24 -9 -23 -13 3 -23 -4 -41
-14 -39 -7 2 -14 -7 -16 -20 -2 -16 -8 -22 -18 -18 -8 3 -12 2 -9 -3 3 -6 -12
-28 -34 -50 -22 -23 -37 -41 -34 -41 4 0 -7 -12 -24 -27 -16 -16 -38 -40 -48
-55 -25 -41 -126 -86 -220 -100 -44 -6 -87 -18 -96 -25 -19 -16 -53 -91 -94
-206 -67 -190 -215 -283 -320 -202 -72 54 -97 162 -76 330 13 102 42 198 84
280 34 67 107 164 152 198 47 37 134 77 182 83 21 3 47 7 59 9 12 3 87 79 168
170 260 292 387 410 586 547 340 234 699 448 969 580 169 81 219 97 153 46z
m-9300 -339 c113 -22 238 -71 325 -126 303 -189 507 -376 703 -638 168 -226
262 -419 410 -845 79 -228 165 -427 216 -501 22 -32 24 -41 15 -79 -6 -26 -23
-57 -44 -79 -19 -20 -50 -52 -68 -71 -41 -42 -171 -150 -243 -202 -52 -38
-143 -73 -218 -84 -24 -4 -81 -24 -128 -45 -47 -20 -105 -41 -130 -44 -38 -6
-52 -15 -85 -56 -22 -26 -43 -48 -47 -48 -4 -1 -5 18 -2 42 5 32 -1 65 -25
135 -36 108 -35 102 -17 102 19 0 74 65 82 97 10 40 -7 56 -82 76 -83 21 -174
49 -174 53 0 1 11 24 24 51 53 107 59 139 63 323 4 199 -2 225 -52 225 -27 0
-33 -7 -66 -76 -40 -83 -76 -119 -119 -119 -25 0 -37 14 -113 138 -213 345
-210 340 -258 526 -44 171 -63 201 -103 157 -15 -17 -16 -30 -6 -127 17 -175
78 -565 116 -744 19 -91 34 -175 34 -187 0 -32 -22 -29 -101 12 -78 40 -101
43 -129 15 -34 -34 -17 -174 35 -285 28 -57 155 -225 214 -279 17 -17 31 -37
31 -47 0 -22 -77 -126 -119 -161 -42 -36 -89 -48 -183 -48 -68 0 -79 -2 -88
-21 -9 -15 -9 -28 0 -50 18 -42 103 -117 166 -145 84 -37 252 -84 300 -84 28
0 44 -5 44 -12 0 -29 -56 -90 -102 -111 -56 -25 -67 -47 -43 -84 l17 -26 -47
6 c-167 23 -341 226 -401 467 -17 68 -19 121 -20 560 0 267 -4 566 -9 665 -5
99 -7 184 -6 190 1 5 -2 45 -8 90 -6 44 -18 215 -26 380 -9 165 -18 308 -21
318 -8 26 14 336 31 437 8 47 26 122 40 166 21 68 32 88 69 122 37 34 56 43
122 57 44 9 84 18 89 20 21 7 86 5 137 -6z m-1135 -216 c-3 -10 -5 -4 -5 12 0
17 2 24 5 18 2 -7 2 -21 0 -30z m10123 23 c0 -2 -8 -10 -17 -17 -16 -13 -17
-12 -4 4 13 16 21 21 21 13z m-10123 -83 c-3 -10 -5 -4 -5 12 0 17 2 24 5 18
2 -7 2 -21 0 -30z m10806 -4 c-17 -17 -37 -1 -22 17 8 10 15 12 23 4 7 -7 7
-13 -1 -21z m-40 -93 c42 -18 78 -58 117 -129 64 -117 84 -213 115 -537 15
-169 23 -789 9 -811 -3 -6 -10 -124 -15 -262 -7 -231 -11 -267 -44 -427 -46
-230 -66 -305 -126 -485 -49 -147 -165 -405 -188 -420 -7 -4 -33 14 -65 47
-42 42 -60 71 -86 138 -17 46 -34 98 -37 115 -4 28 -1 32 53 59 72 34 231 153
260 193 43 58 86 156 91 207 8 89 -15 101 -164 81 -60 -7 -63 -7 -63 13 0 11
22 78 50 148 56 144 106 319 116 411 3 35 13 68 20 74 33 27 10 27 -28 1 -63
-43 -99 -60 -138 -64 l-35 -3 -6 115 c-12 207 -66 350 -168 438 -63 55 -109
75 -90 40 15 -28 3 -352 -17 -473 -18 -107 -36 -174 -77 -277 l-30 -78 -38 35
c-42 38 -84 48 -75 18 41 -132 51 -361 22 -472 -23 -84 -44 -124 -102 -194
-56 -67 -122 -97 -208 -97 -81 0 -118 20 -175 96 -49 65 -119 115 -241 170
-19 9 -59 35 -90 59 -59 46 -200 189 -200 204 0 5 -12 23 -26 40 -24 29 -25
36 -29 185 -5 174 4 223 58 341 18 38 59 105 92 148 33 44 84 111 113 150 29
40 149 169 265 287 117 118 278 286 357 373 198 218 427 412 570 484 65 32
170 69 208 72 7 1 27 -5 45 -13z m-10766 -278 c-3 -8 -6 -5 -6 6 -1 11 2 17 5
13 3 -3 4 -12 1 -19z m0 -70 c-3 -8 -6 -5 -6 6 -1 11 2 17 5 13 3 -3 4 -12 1
-19z m2959 -77 c5 -5 33 -14 62 -20 97 -20 175 -73 234 -159 28 -41 47 -109
26 -96 -4 3 -8 -2 -8 -10 0 -9 -4 -16 -10 -16 -5 0 -10 -8 -10 -17 0 -9 -7
-24 -16 -34 -8 -9 -17 -26 -19 -36 -2 -10 -4 -20 -5 -23 -1 -3 -3 -9 -4 -15
-3 -23 -39 -85 -50 -85 -6 0 -24 20 -41 45 -28 42 -61 62 -49 30 4 -8 2 -15
-4 -15 -7 0 -35 -100 -37 -132 0 -3 -4 -10 -9 -15 -5 -5 -6 -2 -1 6 5 9 4 12
-2 8 -6 -4 -9 -18 -8 -32 4 -33 -1 -32 -20 6 -19 35 -22 35 -29 -6 -2 -17 -5
-32 -7 -35 -3 -7 -6 -23 -8 -40 -3 -27 -39 55 -69 156 -39 131 -55 248 -51
362 4 88 6 95 32 118 16 14 41 24 58 24 26 0 29 3 24 20 -7 21 4 27 21 11z
m-2969 -163 c-3 -8 -6 -5 -6 6 -1 11 2 17 5 13 3 -3 4 -12 1 -19z m0 -50 c-3
-8 -6 -5 -6 6 -1 11 2 17 5 13 3 -3 4 -12 1 -19z m70 -568 c-2 -8 -11 26 -20
75 -27 147 -28 190 -2 60 14 -66 24 -127 22 -135z m11118 240 c3 -5 1 -10 -4
-10 -6 0 -11 5 -11 10 0 6 2 10 4 10 3 0 8 -4 11 -10z m25 -50 c7 0 10 -6 7
-14 -3 -7 3 -20 14 -29 21 -18 26 -43 7 -31 -7 4 -1 -8 12 -27 27 -37 27 -38
8 -51 -10 -8 -10 -11 0 -15 6 -2 9 -10 5 -16 -10 -16 -11 -47 -3 -47 8 0 -3
-71 -14 -88 -4 -7 -2 -12 4 -12 8 0 8 -6 0 -20 -6 -11 -9 -24 -7 -28 3 -4 0
-18 -5 -32 -6 -14 -12 -38 -14 -54 -2 -16 -8 -34 -14 -41 -5 -6 -10 -28 -12
-48 -1 -20 -6 -37 -10 -37 -4 0 -8 -10 -8 -22 0 -13 -9 -47 -20 -76 -11 -28
-20 -55 -20 -60 0 -14 -22 -77 -38 -112 l-17 -35 -3 89 c-2 56 6 154 22 265
22 154 38 291 62 515 5 51 8 57 19 43 7 -9 18 -17 25 -17z m-4216 -100 c23 -7
61 -34 96 -68 48 -48 60 -65 69 -109 13 -66 -5 -124 -59 -186 -45 -51 -117
-91 -255 -143 -55 -20 -190 -83 -300 -139 -233 -120 -286 -139 -360 -133 -108
9 -195 102 -195 207 0 83 35 149 128 241 142 142 395 286 587 336 59 16 231
12 289 -6z m-6917 -142 c-3 -7 -5 -2 -5 12 0 14 2 19 5 13 2 -7 2 -19 0 -25z
m31 -158 c-1 -27 -26 84 -26 115 0 17 6 1 13 -35 8 -36 14 -72 13 -80z m9 -52
c-3 -7 -5 -2 -5 12 0 14 2 19 5 13 2 -7 2 -19 0 -25z m10 -50 c-3 -7 -5 -2 -5
12 0 14 2 19 5 13 2 -7 2 -19 0 -25z m10 -75 c-3 -10 -5 -4 -5 12 0 17 2 24 5
18 2 -7 2 -21 0 -30z m16 -108 c4 -57 3 -69 -3 -40 -9 40 -13 132 -6 124 2 -2
6 -40 9 -84z m14 -132 c-3 -10 -5 -4 -5 12 0 17 2 24 5 18 2 -7 2 -21 0 -30z
m10 -135 c-2 -13 -4 -3 -4 22 0 25 2 35 4 23 2 -13 2 -33 0 -45z m3808 -248
c123 -42 192 -88 295 -197 92 -98 104 -116 193 -288 127 -245 185 -408 206
-580 12 -101 1 -165 -48 -270 -53 -114 -132 -185 -203 -185 -38 0 -126 38
-240 102 -97 55 -127 78 -98 78 5 0 23 19 40 42 35 48 41 117 15 172 -41 86
-165 164 -300 189 -77 15 -82 17 -128 69 -60 65 -169 227 -195 289 -34 78 -45
151 -40 257 6 119 26 169 97 235 117 110 255 139 406 87z m3329 -149 c105 -37
215 -131 262 -222 52 -104 43 -295 -22 -429 -38 -81 -64 -108 -294 -310 -234
-205 -228 -199 -240 -234 -26 -79 -267 -247 -473 -331 -48 -19 -100 -35 -115
-35 -43 0 -124 43 -163 87 -71 78 -86 117 -100 247 -15 149 -8 346 13 378 8
13 22 48 31 78 75 254 316 529 605 687 173 95 370 128 496 84z m-7197 -728
c-3 -10 -5 -4 -5 12 0 17 2 24 5 18 2 -7 2 -21 0 -30z m3428 -43 c-12 -4 -53
-13 -93 -19 -109 -17 -188 -50 -297 -126 -119 -81 -180 -137 -206 -187 -15
-30 -36 -46 -111 -84 -50 -26 -126 -73 -168 -105 -107 -79 -119 -85 -138 -66
-13 14 -12 21 11 69 14 29 28 71 31 92 12 85 111 191 250 268 33 18 74 48 92
66 40 42 87 56 250 76 71 8 143 17 159 19 62 8 240 6 220 -3z m6777 -157 c37
-13 103 -26 146 -30 l78 -6 -18 -37 c-32 -65 -60 -234 -62 -372 l-1 -128 -27
0 c-30 0 -58 39 -58 80 0 12 -9 54 -19 93 -11 40 -27 119 -36 177 -15 94 -20
109 -50 140 -39 42 -55 71 -55 100 0 17 4 20 18 15 9 -4 47 -18 84 -32z
m-7262 -1075 c-73 -110 -103 -208 -103 -338 0 -87 4 -119 26 -186 40 -122 119
-227 232 -310 72 -54 57 -56 -44 -8 -60 29 -95 56 -167 128 -107 106 -144 171
-169 296 -10 47 -29 116 -42 154 l-25 70 23 19 c13 10 70 60 127 111 93 82
166 136 184 136 3 0 -16 -33 -42 -72z m5254 10 c42 -35 113 -96 160 -137 l84
-73 -23 -52 c-13 -28 -31 -89 -40 -136 -31 -152 -99 -270 -212 -365 -64 -53
-208 -133 -219 -122 -3 3 14 18 38 35 55 38 138 126 178 188 17 27 42 86 57
132 23 74 25 94 21 205 -4 106 -9 132 -35 200 -17 43 -50 102 -72 132 -56 75
-31 71 63 -7z m-4363 17 c39 -21 86 -96 95 -151 13 -92 -39 -200 -112 -230
-81 -34 -172 -4 -222 71 -28 43 -32 57 -32 117 0 38 6 83 14 101 17 41 74 95
112 107 37 12 106 5 145 -15z m4122 11 c67 -24 110 -81 123 -164 17 -108 -55
-223 -149 -237 -125 -19 -218 67 -219 198 0 76 11 104 58 156 52 58 113 73
187 47z m-3858 -604 c15 -62 25 -115 24 -116 -2 -2 -41 -7 -86 -10 l-82 -7 39
74 c21 41 44 100 51 131 7 31 16 53 20 49 4 -4 19 -59 34 -121z m2945 72 c7
-31 29 -90 50 -131 l39 -74 -82 7 c-45 3 -84 8 -86 10 -6 6 53 244 61 244 4 0
12 -25 18 -56z m-5495 -474 c206 -22 298 -50 403 -121 26 -18 82 -46 124 -64
107 -45 205 -113 315 -219 189 -180 291 -379 442 -861 152 -485 219 -632 347
-763 40 -39 69 -74 65 -76 -3 -2 -51 -15 -106 -29 -185 -47 -569 -155 -635
-179 -51 -18 -66 -28 -68 -46 -3 -19 1 -22 29 -22 18 0 103 20 188 44 347 99
419 116 706 166 152 27 418 61 470 60 75 -1 194 15 207 28 25 25 -17 39 -137
46 -64 4 -161 4 -215 0 -55 -4 -100 -4 -100 0 0 4 18 28 39 54 91 109 180 326
296 725 97 334 162 498 254 650 62 102 103 152 241 293 168 173 315 258 495
290 88 15 96 15 290 -21 44 -8 106 -14 137 -15 38 0 62 -5 73 -16 18 -18 27
-18 235 11 69 10 142 24 162 33 45 18 128 11 220 -20 163 -53 340 -178 457
-322 141 -175 197 -289 335 -676 84 -234 123 -321 167 -366 54 -56 88 -54 172
10 52 40 74 46 61 19 -4 -10 -8 -38 -8 -62 -1 -36 3 -45 21 -52 18 -6 35 2 90
42 230 169 474 205 682 99 75 -37 167 -106 273 -202 127 -116 153 -98 103 69
-67 222 -132 348 -217 416 -22 17 -56 46 -75 62 l-34 30 11 80 c35 255 118
419 268 533 104 78 437 256 559 297 77 26 182 36 378 36 443 -1 678 -54 934
-212 272 -168 352 -230 561 -439 239 -239 409 -459 499 -645 89 -183 115 -294
126 -531 l7 -139 -51 -158 c-70 -214 -146 -360 -272 -527 -114 -151 -243 -304
-274 -324 -11 -7 -96 -77 -190 -156 -119 -99 -243 -218 -412 -393 -234 -244
-464 -470 -666 -653 -55 -49 -153 -154 -219 -234 -176 -213 -376 -429 -517
-560 -68 -63 -138 -131 -155 -150 -17 -19 -78 -82 -137 -140 -59 -58 -112
-114 -118 -125 -10 -17 -10 -14 -6 15 17 102 26 230 15 230 -5 0 -5 14 1 33
11 38 15 312 5 345 -4 12 -13 22 -20 22 -7 0 -48 -44 -92 -97 -152 -188 -273
-319 -386 -419 -186 -166 -449 -358 -688 -504 -74 -46 -146 -90 -160 -100 -47
-32 -355 -188 -460 -233 -152 -64 -164 -65 -80 -7 41 29 91 66 110 83 271 237
428 394 574 577 166 208 189 241 318 480 147 271 164 306 208 434 22 62 65
173 96 247 114 270 135 323 173 437 21 65 51 149 65 187 15 39 35 99 45 135
17 56 104 292 198 532 16 41 36 74 51 84 18 12 23 22 19 40 -3 17 13 59 51
132 30 59 63 130 72 157 10 28 34 86 55 130 55 119 95 223 95 246 0 17 -4 15
-28 -13 -50 -57 -158 -211 -187 -265 -16 -29 -32 -53 -37 -53 -5 0 -7 -4 -4
-9 3 -5 -1 -15 -10 -22 -8 -7 -33 -44 -55 -83 -21 -39 -48 -82 -58 -96 l-19
-25 -44 24 c-24 13 -78 44 -121 69 l-79 46 9 65 c4 37 8 119 8 184 0 64 3 117
6 117 4 0 78 -27 165 -61 181 -70 214 -78 233 -56 18 23 1 48 -51 74 -62 32
-189 84 -294 122 l-92 33 -27 64 c-15 35 -54 100 -87 145 -33 44 -58 83 -54
86 3 3 32 0 64 -7 89 -19 125 10 97 78 -22 50 -99 73 -275 79 -131 5 -150 3
-201 -16 -34 -13 -79 -42 -113 -74 -48 -43 -58 -58 -58 -86 -1 -37 21 -61 55
-61 11 0 51 16 91 35 91 45 140 54 151 29 29 -72 62 -184 54 -184 -21 0 -196
30 -228 40 -97 28 -589 40 -643 16 -28 -13 -22 -43 10 -51 15 -4 98 -7 184 -6
163 1 328 -19 508 -59 47 -10 110 -24 140 -30 30 -6 60 -14 66 -18 14 -9 34
-113 34 -179 0 -70 -18 -143 -36 -143 -8 0 -44 13 -81 30 -291 127 -592 220
-813 251 -47 6 -90 16 -97 21 -19 15 -34 -1 -27 -30 4 -15 10 -31 15 -36 4 -5
101 -32 216 -61 186 -47 336 -94 533 -168 79 -30 220 -94 220 -100 0 -3 -11
-24 -25 -48 -36 -65 -94 -129 -117 -129 -11 0 -50 17 -86 38 -118 68 -294 158
-395 203 -70 30 -101 49 -107 65 -12 30 -27 38 -37 19 -8 -14 -14 -14 -55 1
-66 22 -103 16 -103 -16 0 -21 8 -28 45 -40 51 -17 547 -265 612 -306 l42 -27
-28 -22 c-29 -23 -155 -70 -218 -81 -131 -22 -261 -4 -468 66 -203 69 -342
102 -515 125 -205 27 -287 42 -295 55 -19 31 -20 118 -1 208 25 119 52 175 99
204 46 28 197 154 238 199 53 57 114 155 150 241 19 44 41 92 49 107 42 76
119 256 140 326 54 189 57 315 9 466 -85 270 -219 516 -334 613 -44 36 -148
88 -235 116 -66 22 -89 23 -425 28 -606 7 -577 8 -650 -17 -148 -51 -282 -134
-375 -232 -171 -181 -251 -307 -308 -484 -67 -206 -62 -375 14 -527 37 -74 55
-143 74 -288 32 -244 67 -325 199 -455 97 -95 180 -147 341 -213 44 -18 86
-39 95 -47 26 -27 27 -221 1 -329 -34 -141 -50 -170 -107 -191 -192 -71 -293
-116 -564 -257 -210 -108 -272 -126 -389 -111 -132 17 -267 70 -409 160 -61
39 -192 167 -192 188 0 16 60 69 103 91 17 9 40 23 50 32 21 19 22 65 2 82 -8
7 -15 16 -15 20 0 5 35 28 78 53 157 91 327 168 447 205 52 15 60 21 60 42 0
33 -24 36 -98 14 -55 -16 -60 -17 -71 -2 -14 19 -32 11 -37 -16 -3 -13 -40
-34 -124 -70 -66 -29 -160 -78 -210 -109 -49 -31 -133 -79 -185 -108 -116 -63
-303 -176 -510 -307 -130 -83 -155 -102 -155 -123 0 -54 73 -24 295 122 83 55
220 132 224 128 3 -2 -10 -36 -29 -74 -74 -156 -102 -292 -71 -340 22 -34 53
-32 74 5 9 16 20 30 23 30 4 0 27 -33 52 -72 25 -40 91 -125 147 -188 215
-246 251 -289 347 -415 55 -71 116 -153 136 -182 49 -70 260 -410 322 -519
124 -218 338 -517 455 -633 102 -101 493 -376 586 -410 29 -11 100 -31 156
-43 133 -29 372 -31 489 -4 150 33 362 129 456 204 133 107 315 318 453 527
64 97 193 345 250 478 112 266 361 753 496 969 76 121 215 373 260 472 14 31
30 56 35 56 8 0 89 -54 172 -114 15 -11 27 -26 27 -33 0 -18 -98 -262 -120
-298 -27 -45 -137 -267 -145 -293 -4 -13 -31 -70 -61 -125 -30 -56 -72 -140
-94 -187 -49 -105 -138 -269 -253 -465 -49 -83 -138 -237 -198 -343 -212 -373
-348 -528 -614 -704 -286 -189 -538 -290 -755 -304 -226 -15 -531 33 -750 118
-110 43 -167 57 -155 38 9 -15 -6 -60 -21 -60 -36 0 -278 165 -356 242 -71 71
-86 114 -62 184 13 40 14 49 3 53 -37 11 -478 474 -610 639 -34 42 -74 88 -89
102 -15 14 -76 90 -135 170 -116 155 -191 240 -209 240 -6 0 -41 29 -76 66
-36 36 -90 84 -120 107 -30 23 -63 48 -72 57 -32 29 -192 142 -213 151 -39 16
-259 173 -317 226 -127 117 -236 263 -293 391 -103 236 -131 386 -120 662 11
298 23 374 86 533 45 112 46 116 20 93 -34 -31 -128 -236 -149 -326 -61 -257
-84 -430 -78 -600 6 -171 29 -253 130 -465 81 -166 151 -274 251 -383 16 -19
35 -42 40 -52 19 -34 225 -190 304 -230 45 -23 227 -157 295 -219 110 -100
208 -210 304 -341 127 -174 225 -303 242 -320 3 -3 17 -21 31 -40 15 -19 37
-47 50 -62 13 -15 42 -57 64 -94 22 -36 72 -103 110 -148 39 -45 86 -102 106
-127 20 -24 61 -73 90 -108 30 -35 68 -82 84 -103 109 -143 213 -252 369 -386
178 -152 272 -199 536 -267 198 -51 350 -97 350 -107 0 -4 -26 -15 -57 -25
-87 -27 -196 -23 -328 11 -113 30 -496 160 -710 243 -328 125 -475 175 -499
169 -12 -3 -43 -25 -71 -50 -27 -24 -63 -55 -79 -68 l-29 -24 -81 39 c-44 21
-106 51 -136 67 -30 15 -170 85 -310 155 -239 120 -334 172 -487 267 -34 21
-67 38 -73 38 -5 0 -10 5 -10 10 0 6 -4 10 -10 10 -10 0 -242 138 -250 149 -3
4 -50 37 -105 73 -55 37 -114 79 -131 95 -81 73 -345 294 -373 313 -15 10 -42
116 -71 275 -10 58 -18 423 -8 397 3 -9 5 1 3 23 -5 61 -5 61 -18 39 -7 -11
-24 -36 -39 -55 -14 -19 -34 -63 -43 -99 -9 -36 -23 -78 -30 -95 -8 -16 -16
-52 -18 -80 -3 -27 -10 -82 -17 -121 l-13 -71 -30 26 c-17 14 -91 80 -165 146
-73 66 -155 138 -180 160 -26 22 -60 55 -77 75 -16 19 -68 77 -115 130 -47 53
-96 111 -110 129 -14 18 -56 70 -95 115 -38 44 -102 128 -141 186 -40 58 -81
114 -93 124 -12 11 -44 58 -72 105 -28 47 -75 126 -105 176 -30 49 -54 95 -54
102 0 7 -4 13 -9 13 -9 0 -44 90 -38 97 2 1 17 -15 33 -37 16 -22 32 -40 37
-40 9 0 0 39 -23 103 -19 49 -14 62 8 26 21 -33 32 -10 21 45 -5 26 -6 52 -3
57 3 5 0 9 -5 9 -6 0 -11 14 -11 30 0 17 5 30 11 30 5 0 7 -4 4 -10 -3 -5 -1
-10 5 -10 6 0 9 -4 6 -8 -2 -4 -1 -14 5 -22 6 -12 9 -12 9 -2 0 18 29 46 38
37 4 -3 -1 -12 -11 -19 -9 -7 -17 -18 -17 -25 0 -6 -4 -11 -9 -11 -5 0 -12 -8
-15 -17 -6 -15 -5 -15 13 1 25 23 43 12 35 -20 -4 -15 -2 -24 6 -24 7 0 10 -6
7 -14 -3 -8 5 -18 19 -25 25 -11 33 -46 12 -54 -10 -4 -10 -6 -1 -6 15 -1 35
34 25 44 -4 5 -1 5 6 1 6 -4 12 -15 12 -24 0 -10 9 -23 21 -30 11 -7 19 -18
16 -25 -2 -7 3 -18 12 -25 10 -8 10 -11 2 -6 -9 5 -12 3 -7 -4 11 -19 26 -14
26 9 0 13 -4 18 -12 13 -8 -5 -9 -2 -5 9 3 10 2 17 -3 17 -5 0 -7 7 -4 15 4 8
2 15 -2 15 -5 0 -10 12 -11 27 0 15 -6 29 -12 31 -6 2 -9 8 -5 13 3 5 0 9 -7
9 -7 0 -9 3 -6 7 4 3 -2 20 -12 37 -83 134 -220 482 -221 559 0 9 -4 17 -8 17
-5 0 -9 15 -9 33 0 51 -14 139 -26 172 -13 35 -47 66 -64 60 -7 -2 -13 2 -13
9 0 17 -35 48 -43 39 -4 -3 -7 1 -7 10 0 9 -6 20 -13 24 -7 4 -18 20 -24 36
-7 15 -20 27 -28 27 -9 0 -15 6 -14 13 3 26 -1 38 -13 31 -7 -4 -8 -3 -4 5 4
6 -3 31 -17 54 -13 23 -30 59 -36 80 -9 27 -18 37 -34 38 -18 1 -19 2 -4 6 14
4 17 11 13 31 -2 15 -8 50 -11 77 -4 28 -12 53 -18 58 -9 5 -9 9 1 15 8 5 11
20 8 36 -3 15 -1 24 5 21 5 -4 9 5 9 19 0 13 5 37 11 53 6 15 21 69 34 118 42
168 177 432 299 585 29 36 63 79 75 95 12 17 59 68 104 114 263 269 591 443
927 490 168 23 173 24 295 11z m-1785 -1650 c0 -11 -4 -20 -10 -20 -5 0 -10 9
-10 20 0 11 5 20 10 20 6 0 10 -9 10 -20z m-20 -50 c0 -5 -4 -10 -10 -10 -5 0
-10 5 -10 10 0 6 5 10 10 10 6 0 10 -4 10 -10z m0 -60 c0 -5 -4 -10 -10 -10
-5 0 -10 5 -10 10 0 6 5 10 10 10 6 0 10 -4 10 -10z m-6 -32 c-5 -8 -2 -9 9
-5 12 5 17 1 17 -13 0 -25 -16 -26 -30 -1 -13 25 -13 31 1 31 5 0 7 -5 3 -12z
m86 2 c0 -13 -11 -13 -30 0 -12 8 -11 10 8 10 12 0 22 -4 22 -10z m-111 -43
c1 -5 -3 -5 -9 -2 -5 3 -10 16 -9 28 0 21 1 21 9 2 5 -11 9 -24 9 -28z m31
-27 c0 -5 -4 -10 -10 -10 -5 0 -10 5 -10 10 0 6 5 10 10 10 6 0 10 -4 10 -10z
m68 -7 c-5 -25 -28 -28 -28 -4 0 12 6 21 16 21 9 0 14 -7 12 -17z m-48 -28
c-7 -8 -20 -15 -29 -15 -11 0 -8 5 9 14 33 19 35 19 20 1z m100 0 c0 -8 -4
-15 -10 -15 -5 0 -10 7 -10 15 0 8 5 15 10 15 6 0 10 -7 10 -15z m-56 -11 c9
-3 16 -16 16 -28 -1 -21 -1 -21 -12 -1 -6 11 -16 23 -22 27 -13 9 -3 10 18 2z
m56 -81 c0 -19 -21 -27 -31 -12 -13 21 -11 25 11 25 11 0 20 -6 20 -13z m50
-43 c0 -5 -2 -10 -4 -10 -3 0 -8 5 -11 10 -3 6 -1 10 4 10 6 0 11 -4 11 -10z
m27 -12 c-3 -8 -6 -5 -6 6 -1 11 2 17 5 13 3 -3 4 -12 1 -19z m33 2 c0 -5 -4
-10 -10 -10 -5 0 -10 5 -10 10 0 6 5 10 10 10 6 0 10 -4 10 -10z m108 -112
c-2 -6 -10 -14 -16 -16 -7 -2 -10 2 -6 12 7 18 28 22 22 4z m5798 -275 c-13
-47 -20 -96 -25 -178 -6 -89 -6 -90 -31 -87 -52 5 -124 50 -153 94 -25 39 -26
44 -11 53 9 6 60 38 113 72 53 34 100 62 104 62 5 1 6 -7 3 -16z m-646 -138
c52 -24 99 -50 104 -57 26 -42 -123 -223 -233 -282 l-54 -29 7 24 c39 134 57
224 58 301 2 53 7 88 13 88 5 -1 53 -21 105 -45z m-5230 -66 c-6 -51 -12 -95
-14 -97 -2 -2 -12 18 -22 44 l-18 47 29 53 c16 29 31 52 33 50 2 -3 -1 -46 -8
-97z m8095 -194 c52 -31 95 -63 95 -71 0 -8 -11 -36 -24 -62 -12 -26 -36 -80
-51 -119 -16 -40 -32 -73 -37 -73 -5 0 -52 30 -104 67 -109 77 -104 59 -49
203 20 52 38 101 41 109 5 17 15 13 129 -54z m-7735 -175 c0 -5 -5 -10 -11
-10 -5 0 -7 5 -4 10 3 6 8 10 11 10 2 0 4 -4 4 -10z m12440 -330 c-6 -11 -13
-20 -16 -20 -2 0 0 9 6 20 6 11 13 20 16 20 2 0 0 -9 -6 -20z m-2259 -327 c-5
-10 -47 -54 -92 -98 l-83 -80 54 65 c53 64 117 130 126 130 3 0 0 -8 -5 -17z
m-181 -187 c0 -2 -8 -10 -17 -17 -16 -13 -17 -12 -4 4 13 16 21 21 21 13z
m-3782 -132 c43 -30 22 -91 -38 -109 -95 -29 -326 -199 -417 -308 -115 -137
-159 -138 -373 -6 -46 28 -188 84 -301 118 -81 25 -355 77 -476 91 -120 13
-143 22 -143 55 0 18 11 32 38 49 58 39 117 56 260 73 115 15 147 15 240 4
146 -18 202 -34 309 -87 70 -36 108 -63 163 -118 l71 -71 52 56 c75 81 143
130 252 184 151 75 311 106 363 69z m5752 -88 c0 -2 -8 -10 -17 -17 -16 -13
-17 -12 -4 4 13 16 21 21 21 13z m-150 -200 c0 -2 -8 -10 -17 -17 -16 -13 -17
-12 -4 4 13 16 21 21 21 13z m-7849 -87 c4 -25 16 -80 28 -122 26 -97 27 -117
2 -117 -15 0 -24 15 -39 68 -32 105 -41 151 -35 189 9 51 36 40 44 -18z m7819
47 c0 -2 -8 -10 -17 -17 -16 -13 -17 -12 -4 4 13 16 21 21 21 13z m-7599 -17
c11 -6 40 -52 64 -102 24 -51 60 -110 82 -132 100 -106 123 -139 143 -203 24
-78 25 -114 4 -175 -22 -65 -56 -90 -109 -81 -100 16 -157 83 -231 274 -29 77
-35 103 -30 140 4 31 0 65 -14 108 -25 81 -25 123 1 156 22 28 56 34 90 15z
m7559 -33 c0 -2 -8 -10 -17 -17 -16 -13 -17 -12 -4 4 13 16 21 21 21 13z
m-5333 -63 c11 -28 14 -60 11 -123 -4 -79 -8 -93 -58 -192 -53 -105 -102 -179
-172 -257 -48 -54 -82 -55 -138 -5 -28 25 -44 52 -55 87 -25 85 -16 106 104
231 58 61 141 153 185 204 43 50 85 92 93 92 8 0 21 -17 30 -37z m5293 13 c0
-2 -8 -10 -17 -17 -16 -13 -17 -12 -4 4 13 16 21 21 21 13z m-2270 -10 c0 -3
-4 -8 -10 -11 -5 -3 -10 -1 -10 4 0 6 5 11 10 11 6 0 10 -2 10 -4z m-9071 -42
c28 -35 26 -69 -4 -99 -52 -53 -125 -22 -125 52 0 70 87 101 129 47z m11301 2
c0 -2 -8 -10 -17 -17 -16 -13 -17 -12 -4 4 13 16 21 21 21 13z m-50 -60 c0 -2
-8 -10 -17 -17 -16 -13 -17 -12 -4 4 13 16 21 21 21 13z m-10433 -78 c-2 -13
-4 -5 -4 17 -1 22 1 32 4 23 2 -10 2 -28 0 -40z m10383 19 c0 -2 -10 -12 -22
-23 l-23 -19 19 23 c18 21 26 27 26 19z m-60 -70 c0 -2 -12 -14 -27 -28 l-28
-24 24 28 c23 25 31 32 31 24z m-70 -80 c0 -2 -15 -16 -32 -33 l-33 -29 29 33
c28 30 36 37 36 29z m-11071 -111 c37 -20 95 -124 126 -223 14 -48 53 -171 85
-273 70 -220 86 -287 96 -400 4 -47 13 -94 20 -105 17 -24 18 -48 2 -43 -14 5
-48 109 -48 148 0 14 -4 31 -8 38 -8 12 -10 1 -15 -90 -1 -10 -3 -18 -6 -18
-2 0 -32 25 -67 55 -118 104 -176 219 -253 500 -65 238 -72 366 -20 408 25 20
55 21 88 3z m8291 5 c0 -14 -18 -23 -30 -16 -6 4 -8 11 -5 16 8 12 35 12 35 0z
m2640 -46 c-24 -25 -46 -45 -49 -45 -3 0 15 20 39 45 24 25 46 45 49 45 3 0
-15 -20 -39 -45z m-160 -168 c0 -2 -17 -19 -37 -38 l-38 -34 34 38 c33 34 41
42 41 34z m-5198 -63 c17 -11 7 -37 -27 -71 -19 -19 -40 -33 -47 -31 -17 6
-38 106 -24 112 12 6 84 -2 98 -10z m-1322 -21 c17 -21 20 -38 18 -82 -4 -77
-24 -74 -65 9 -41 84 -42 100 -4 100 20 0 36 -9 51 -27z m239 -49 c31 -22 81
-102 81 -130 0 -38 -25 -49 -62 -27 -48 28 -78 78 -78 129 0 49 17 57 59 28z
m808 -5 c12 -4 23 -15 23 -22 0 -24 -45 -81 -74 -96 -36 -17 -47 -6 -71 68
-15 45 -15 55 -4 62 15 10 87 3 126 -12z m2343 7 c0 -2 -7 -6 -15 -10 -8 -3
-15 -1 -15 4 0 6 7 10 15 10 8 0 15 -2 15 -4z m-2623 -45 c22 -11 44 -28 47
-39 8 -25 -18 -90 -39 -98 -47 -18 -87 27 -101 114 -6 41 -6 42 22 42 16 0 48
-9 71 -19z m-226 -6 c35 -19 53 -58 44 -101 -8 -45 -36 -67 -68 -55 -14 5 -28
15 -32 21 -12 20 -43 138 -37 144 11 11 63 6 93 -9z m-4228 -34 c68 -46 279
-171 289 -171 5 0 -9 23 -31 52 -75 93 -52 81 191 -103 345 -262 766 -535
1203 -779 121 -68 249 -140 285 -161 87 -52 358 -185 495 -244 133 -57 549
-230 660 -275 280 -112 828 -275 987 -293 l97 -11 283 91 c548 176 1255 418
1423 488 158 65 435 200 512 248 58 37 115 105 169 201 46 83 147 216 163 216
11 0 -4 -82 -26 -143 -19 -52 -12 -79 21 -85 9 -2 54 21 99 51 181 122 839
479 854 464 8 -9 -14 -43 -97 -147 -44 -55 -80 -102 -80 -105 0 -13 26 -2 83
37 84 57 291 213 307 232 24 30 83 15 157 -41 18 -14 35 -33 38 -43 6 -20
-105 -235 -230 -445 -39 -66 -84 -142 -100 -170 -16 -27 -59 -96 -97 -153 -37
-57 -68 -105 -68 -108 0 -2 13 -4 28 -4 43 0 75 -39 70 -87 l-3 -38 -130 -56
c-283 -122 -686 -262 -1009 -350 -226 -62 -559 -135 -651 -144 -38 -3 -124
-17 -190 -30 -122 -25 -398 -64 -464 -66 l-36 -1 30 -8 c17 -4 25 -8 19 -9 -6
0 -30 -18 -54 -38 l-44 -38 -176 0 c-150 0 -183 3 -230 20 l-55 20 75 6 c41 4
-28 5 -154 2 -147 -3 -226 -1 -222 5 3 5 -1 15 -9 22 -11 9 -12 17 -3 36 6 13
8 27 4 31 -9 10 -26 -17 -26 -42 0 -11 -7 -29 -15 -39 -14 -18 -23 -19 -282
-8 -1068 47 -1981 252 -2953 664 -156 66 -219 106 -204 130 3 5 -5 21 -18 37
-13 15 -45 69 -73 120 -27 51 -87 149 -132 219 -78 119 -91 142 -78 142 3 0
38 -18 77 -40 39 -22 73 -38 75 -36 3 3 -36 45 -87 93 -188 178 -460 487 -626
709 -113 152 -122 168 -104 189 16 19 14 20 63 -14z m9977 -4 c0 -2 -12 -14
-27 -28 l-28 -24 24 28 c23 25 31 32 31 24z m-3069 -120 c-12 -19 -29 -41 -38
-48 -9 -8 -1 9 18 38 37 56 54 65 20 10z m2949 9 c0 -2 -8 -10 -17 -17 -16
-13 -17 -12 -4 4 13 16 21 21 21 13z m-2573 -33 c-9 -9 -20 -13 -24 -9 -4 4
-1 11 7 16 25 16 35 11 17 -7z m-427 -47 c0 -3 -4 -8 -10 -11 -5 -3 -10 -1
-10 4 0 6 5 11 10 11 6 0 10 -2 10 -4z m-74 -84 c-17 -16 -18 -16 -5 5 7 12
15 20 18 17 3 -2 -3 -12 -13 -22z m2914 24 c0 -2 -8 -10 -17 -17 -16 -13 -17
-12 -4 4 13 16 21 21 21 13z m-2667 -51 c-28 -22 -34 -17 -15 14 14 24 18 27
25 15 6 -11 3 -20 -10 -29z m-292 -32 c-17 -21 -42 -51 -57 -68 -23 -27 -24
-27 -13 -5 15 31 81 109 92 110 5 0 -5 -17 -22 -37z m-234 -138 c-49 -48 -58
-44 -11 4 22 22 41 37 43 35 2 -2 -12 -20 -32 -39z m58 -55 c-64 -64 -92 -85
-83 -61 3 11 140 131 148 131 2 0 -27 -31 -65 -70z m-131 -25 c-7 -17 -34 -21
-34 -4 0 5 4 8 9 4 5 -3 12 -1 16 5 9 15 15 12 9 -5z m-14 -44 c0 -5 -7 -12
-16 -15 -14 -5 -15 -4 -4 9 14 17 20 19 20 6z m-40 -41 c0 -5 8 -7 18 -4 14 5
14 3 -2 -10 -27 -22 -45 -20 -39 4 5 20 23 28 23 10z m-341 -36 c-6 -8 -17
-14 -23 -13 -7 0 -6 2 2 6 6 2 12 11 12 19 0 9 5 12 10 9 8 -5 7 -11 -1 -21z
m105 11 c3 -9 0 -15 -9 -15 -8 0 -15 7 -15 15 0 8 4 15 9 15 5 0 11 -7 15 -15z
m56 5 c0 -5 -4 -10 -10 -10 -5 0 -10 5 -10 10 0 6 5 10 10 10 6 0 10 -4 10
-10z m-113 -40 c1 -11 -2 -20 -7 -20 -10 0 -20 26 -13 34 12 11 19 6 20 -14z
m227 11 c4 -5 -7 -12 -24 -16 -16 -4 -32 -11 -35 -16 -9 -14 -25 -11 -25 6 0
10 10 15 30 15 17 0 30 5 30 10 0 13 17 13 24 1z m-314 -49 c0 -15 -2 -15 -10
-2 -13 20 -13 33 0 25 6 -3 10 -14 10 -23z m210 3 c-14 -17 -30 -20 -30 -5 0
6 7 10 15 10 8 0 15 5 15 12 0 6 3 8 6 5 4 -4 1 -13 -6 -22z m-240 -15 c0 -5
-4 -10 -10 -10 -5 0 -10 5 -10 10 0 6 5 10 10 10 6 0 10 -4 10 -10z m110 0 c0
-5 -4 -10 -10 -10 -5 0 -10 5 -10 10 0 6 5 10 10 10 6 0 10 -4 10 -10z m-160
-15 c0 -8 -4 -15 -10 -15 -5 0 -10 7 -10 15 0 8 5 15 10 15 6 0 10 -7 10 -15z
m226 0 c-23 -17 -36 -19 -36 -6 0 11 18 19 40 20 11 0 10 -3 -4 -14z m-262
-11 c3 -8 2 -12 -4 -9 -6 3 -10 10 -10 16 0 14 7 11 14 -7z m54 -52 c2 -7 -2
-10 -12 -6 -9 3 -16 11 -16 16 0 13 23 5 28 -10z m-170 -57 c-3 -3 -9 2 -12
12 -6 14 -5 15 5 6 7 -7 10 -15 7 -18z m52 15 c0 -5 -4 -10 -10 -10 -5 0 -10
5 -10 10 0 6 5 10 10 10 6 0 10 -4 10 -10z m50 -20 c-20 -13 -40 -13 -40 0 0
6 12 10 28 10 21 0 24 -2 12 -10z m-46 -19 c6 -9 -35 -24 -43 -15 -6 5 18 24
31 24 4 0 9 -4 12 -9z m-124 -26 c0 -14 -4 -25 -10 -25 -11 0 -14 33 -3 43 11
11 13 8 13 -18z m22 -17 c-8 -8 -9 -4 -5 13 4 13 8 18 11 10 2 -7 -1 -18 -6
-23z m48 22 c0 -5 -5 -10 -11 -10 -5 0 -7 5 -4 10 3 6 8 10 11 10 2 0 4 -4 4
-10z"/>
<path d="M5665 14590 c3 -5 8 -10 11 -10 2 0 4 5 4 10 0 6 -5 10 -11 10 -5 0
-7 -4 -4 -10z"/>
<path d="M8596 7221 c-4 -7 -5 -15 -2 -18 9 -9 19 4 14 18 -4 11 -6 11 -12 0z"/>
<path d="M10886 7221 c-4 -5 -2 -12 3 -15 5 -4 12 -2 15 3 4 5 2 12 -3 15 -5
4 -12 2 -15 -3z"/>
<path d="M8426 7035 c-11 -8 -38 -15 -59 -15 -61 0 -342 -66 -493 -116 -74
-24 -138 -44 -143 -44 -5 0 -12 9 -16 19 -11 37 -161 75 -295 75 -157 0 -291
-57 -402 -171 -74 -75 -102 -113 -142 -193 -56 -111 -71 -165 -71 -270 0 -81
5 -109 34 -194 18 -54 42 -107 53 -118 18 -18 21 -18 37 -3 11 9 21 37 25 72
9 81 58 189 143 316 95 143 120 168 201 205 256 115 305 134 607 239 118 40
385 107 470 118 73 8 85 17 85 61 0 37 -6 40 -34 19z"/>
<path d="M8966 6934 c-10 -26 -7 -34 14 -34 15 0 20 7 20 25 0 28 -24 34 -34
9z"/>
<path d="M10496 6941 c-9 -14 4 -41 21 -41 9 0 13 8 11 22 -3 23 -23 35 -32
19z"/>
<path d="M8690 6852 c0 -28 27 -49 43 -33 8 8 9 16 1 29 -16 25 -44 28 -44 4z"/>
<path d="M10772 6858 c-14 -14 -16 -35 -3 -43 12 -7 41 22 41 41 0 17 -22 18
-38 2z"/>
<path d="M8440 6705 c0 -9 5 -15 11 -13 6 2 11 8 11 13 0 5 -5 11 -11 13 -6 2
-11 -4 -11 -13z"/>
<path d="M11032 6708 c6 -18 28 -21 28 -4 0 9 -7 16 -16 16 -9 0 -14 -5 -12
-12z"/>
<path d="M8683 6644 c-3 -8 -1 -20 6 -27 14 -14 47 15 37 32 -10 16 -36 13
-43 -5z"/>
<path d="M10773 6644 c-7 -18 11 -39 26 -30 17 11 13 46 -4 46 -9 0 -18 -7
-22 -16z"/>
<path d="M8220 6405 c0 -8 7 -15 15 -15 8 0 15 7 15 15 0 8 -7 15 -15 15 -8 0
-15 -7 -15 -15z"/>
<path d="M11242 6408 c6 -18 28 -21 28 -4 0 9 -7 16 -16 16 -9 0 -14 -5 -12
-12z"/>
<path d="M6000 5185 c0 -6 4 -26 10 -45 7 -25 7 -36 -2 -41 -9 -6 -8 -10 5
-15 9 -3 17 -13 17 -20 0 -11 -4 -12 -19 -4 -17 9 -19 7 -16 -11 3 -12 7 -24
11 -28 4 -3 4 3 1 14 -7 20 -7 20 8 1 10 -14 12 -22 4 -27 -7 -4 -5 -8 5 -12
9 -4 16 1 19 11 3 11 5 7 6 -9 0 -14 8 -34 16 -45 19 -25 19 -3 0 43 -8 19
-15 43 -15 53 0 19 -49 152 -50 135z"/>
<path d="M6096 4907 c3 -10 9 -15 12 -12 3 3 0 11 -7 18 -10 9 -11 8 -5 -6z"/>
<path d="M6173 4755 c6 -19 14 -35 19 -35 11 0 10 7 -7 40 -21 40 -26 38 -12
-5z"/>
<path d="M6216 4690 c3 -14 10 -29 15 -34 14 -16 10 6 -7 34 l-15 25 7 -25z"/>
<path d="M6240 4631 c0 -5 7 -12 16 -15 14 -5 15 -4 4 9 -14 17 -20 19 -20 6z"/>
<path d="M6276 4587 c3 -10 9 -15 12 -12 3 3 0 11 -7 18 -10 9 -11 8 -5 -6z"/>
<path d="M10685 1820 l-60 -7 50 0 c28 -1 75 2 105 7 54 7 54 7 10 7 -25 0
-72 -3 -105 -7z"/>
<path d="M10513 1803 c20 -2 54 -2 75 0 20 2 3 4 -38 4 -41 0 -58 -2 -37 -4z"/>
</g>
</svg>
